<svg width="79" height="68" viewBox="0 0 79 68" fill="none" xmlns="http://www.w3.org/2000/svg">
<g clip-path="url(#clip0_2158_50224)">
<path d="M49.0393 33.8661H49.231V34.3594H49.3131V33.8661H49.5048V33.7839H49.0393V33.8661Z" fill="#D9232E"/>
<path d="M49.6964 33.8661H49.7101L49.8881 34.3594H49.9428L50.1482 33.8661V34.3594H50.2304V33.7839H50.0935L49.9155 34.1813L49.7512 33.7839H49.6143V34.3594H49.6964V33.8661Z" fill="#D9232E"/>
<path d="M43.5765 30.2211L43.6724 30.1526C43.7271 30.1526 43.7819 30.2074 43.823 30.1937C43.7819 30.1663 43.823 30.1252 43.7819 30.1252L43.6587 29.8923H43.645L43.5354 30.1115C43.4259 30.1115 43.3985 30.2485 43.3301 30.3171L43.5354 30.2074L43.5765 30.2211Z" fill="#D9232E"/>
<path d="M42.3579 30.4816C42.4127 30.4679 42.4674 30.4679 42.5359 30.4405C42.6591 30.4953 42.796 30.4268 42.9192 30.4268C42.9192 30.4131 42.9192 30.3994 42.9055 30.372C42.8508 30.3583 42.796 30.372 42.7413 30.3583C42.7413 30.2761 42.8097 30.1802 42.7276 30.1117C42.577 30.235 42.4674 30.3583 42.3579 30.4816Z" fill="#D9232E"/>
<path d="M43.6039 29.1797C43.6587 29.2756 43.7409 29.3715 43.7682 29.4811C43.7409 29.6456 43.7682 29.8374 43.8504 29.9881C44.0147 30.3033 44.3569 30.4951 44.7129 30.4677L44.576 30.3992V30.3855H44.5623C44.2611 30.2074 44.1105 29.8785 44.1379 29.5496C44.0831 29.4811 43.9873 29.4126 43.9462 29.3441L43.7956 29.1934V29.1797H43.7819L43.6039 29.0152C43.5903 29.07 43.5766 29.1386 43.6039 29.1797Z" fill="#D9232E"/>
<path d="M42.5635 29.6732C42.5772 29.6869 42.6046 29.6869 42.6182 29.6732C42.5909 29.6458 42.5772 29.6047 42.5498 29.5772C42.5361 29.5361 42.5635 29.495 42.5635 29.4539C42.5909 29.4402 42.6319 29.4265 42.6456 29.3991C42.495 29.3991 42.3444 29.4265 42.2075 29.3717C42.2075 29.3854 42.2212 29.4128 42.2212 29.4265C42.3444 29.495 42.4813 29.5635 42.5635 29.6732Z" fill="#D9232E"/>
<path d="M44.2748 30.5089C44.2748 30.5363 44.2748 30.5774 44.2748 30.6048C44.3159 30.6459 44.3296 30.7007 44.3159 30.7555L44.1653 30.9337L44.179 30.9885C44.3433 30.8925 44.4802 30.7144 44.6171 30.5774C44.5349 30.5637 44.4391 30.5911 44.3706 30.5226C44.357 30.5774 44.3022 30.5089 44.2748 30.5089Z" fill="#D9232E"/>
<path d="M43.7409 30.4267C43.6998 30.5089 43.5629 30.5226 43.5903 30.6322C43.6587 30.5911 43.6998 30.55 43.7682 30.4952C43.8641 30.4404 43.9873 30.4678 44.0831 30.4815C44.0147 30.4267 43.9325 30.3445 43.8641 30.2759C43.7546 30.2211 43.7819 30.3719 43.7409 30.4267Z" fill="#D9232E"/>
<path d="M41.1532 30.5775C41.1669 30.4816 41.1669 30.372 41.1805 30.2761L41.1942 30.2624C41.2353 30.2761 41.2901 30.3172 41.3312 30.3309C41.3312 30.3172 41.3175 30.3035 41.3175 30.2898C41.1942 30.1939 41.071 30.0568 40.9204 30.002L40.9341 30.0842C40.9889 30.2076 41.0299 30.3309 41.071 30.4679C41.1121 30.509 41.0984 30.5775 41.1532 30.5775Z" fill="#D9232E"/>
<path d="M40.4138 31.66C40.2495 31.7285 40.0989 31.797 39.9346 31.8518L39.8936 31.8792C40.0031 31.9066 40.1126 31.9477 40.2085 31.9751L40.3317 32.1121C40.3864 32.071 40.3454 32.0162 40.3454 31.9614C40.2906 31.9066 40.3043 31.8244 40.3454 31.7559L40.4138 31.7011C40.4275 31.6874 40.4412 31.66 40.4138 31.66Z" fill="#D9232E"/>
<path d="M41.3314 32.7972C41.3177 32.7835 41.304 32.7835 41.2903 32.7972C41.2903 32.8383 41.2766 32.8931 41.3177 32.9206L41.304 33.2631C41.2492 33.3179 41.2356 33.3864 41.2082 33.455L41.0986 33.5783C41.0986 33.7016 41.0576 33.8112 41.126 33.9072C41.1397 33.9072 41.1671 33.9072 41.1808 33.8934C41.1945 33.8112 41.1808 33.7564 41.2356 33.7016C41.2356 33.6194 41.2219 33.5235 41.2629 33.455L41.3588 33.3727C41.3725 33.3316 41.3861 33.2905 41.4135 33.2631C41.4546 33.2768 41.5231 33.2768 41.5231 33.3316C41.5367 33.3179 41.5641 33.3042 41.5641 33.2768C41.4957 33.1398 41.4409 33.0028 41.3725 32.8794C41.3862 32.852 41.3451 32.8246 41.3314 32.7972Z" fill="#D9232E"/>
<path d="M41.0437 32.1669C41.1532 32.2903 41.3449 32.3725 41.386 32.5369L41.427 32.5095C41.4681 32.4684 41.4133 32.4136 41.427 32.3588C41.4818 32.3725 41.5366 32.3999 41.5639 32.3314L41.427 32.2355C41.3038 32.1944 41.1806 32.1806 41.0437 32.1669Z" fill="#D9232E"/>
<path d="M40.5508 31.0844C40.633 31.0844 40.7014 31.057 40.7699 31.0159L40.6193 31.0022C40.4687 31.0022 40.3181 30.9748 40.1675 30.9885C40.2907 31.0707 40.3455 31.2077 40.4413 31.3036C40.4824 31.3584 40.4961 31.4544 40.5919 31.4544C40.5782 31.3995 40.5508 31.3584 40.5371 31.3036L40.5508 31.0844Z" fill="#D9232E"/>
<path d="M47.9304 33.3591C47.9167 33.3728 47.8893 33.3865 47.903 33.4276C47.9167 33.4687 47.9304 33.5235 47.9441 33.5783C47.8756 33.6743 47.7798 33.7702 47.6976 33.825C47.6566 33.8387 47.6566 33.7702 47.6429 33.7565C47.6018 33.8113 47.5744 33.8661 47.547 33.9209H47.5333C47.5333 33.9483 47.5196 33.9757 47.506 33.9894C47.4786 34.1265 47.3417 34.2087 47.2595 34.3046L47.4101 34.2361C47.506 34.2224 47.5881 34.0305 47.6839 34.1539C47.7661 34.0716 47.8208 34.0442 47.903 33.9483C47.8619 33.962 47.8345 33.962 47.7935 33.9757C47.7798 33.9757 47.7935 33.962 47.7935 33.962C47.8893 33.8524 48.0262 33.7702 48.122 33.6469L47.9988 33.5509C47.9988 33.4824 47.9578 33.4139 47.9304 33.3591Z" fill="#D9232E"/>
<path d="M44.6992 34.7842C44.7814 34.702 44.8498 34.5924 44.9183 34.4965C44.6718 34.5787 44.4254 34.6746 44.179 34.7568C44.3706 34.7568 44.5349 34.7705 44.6992 34.7842Z" fill="#D9232E"/>
<path d="M45.151 33.8662C44.9045 34.0443 44.6581 34.195 44.3843 34.3321C44.5486 34.3184 44.7676 34.2498 44.9456 34.2772C45.0278 34.2087 45.0688 34.1128 45.151 34.0443C45.1373 33.9895 45.1647 33.921 45.151 33.8662Z" fill="#D9232E"/>
<path d="M45.2057 34.7431C45.2605 34.7568 45.2742 34.7294 45.3289 34.7431C45.3426 34.7431 45.3426 34.7568 45.3563 34.7431L45.6712 34.7294C45.4795 34.6746 45.2878 34.6061 45.1099 34.4965C45.1372 34.5787 45.192 34.6609 45.2057 34.7431Z" fill="#D9232E"/>
<path d="M45.3974 33.9758C45.3563 33.9621 45.3289 33.8936 45.2742 33.8799L45.2879 34.1128C45.3016 34.1539 45.3289 34.195 45.3289 34.2361C45.3563 34.2498 45.3563 34.3047 45.3837 34.3184C45.548 34.2909 45.6986 34.3321 45.8629 34.3595L45.8081 34.3184C45.6712 34.2087 45.5206 34.0991 45.3974 33.9758Z" fill="#D9232E"/>
<path d="M45.3291 33.1398C45.1511 33.3043 44.9731 33.4824 44.7951 33.6469C44.5624 33.6606 44.2885 33.6606 44.0558 33.6606V33.6743C43.9052 33.6743 43.7409 33.6606 43.6177 33.688C43.6724 33.7291 43.7409 33.7702 43.7957 33.7976C44.0284 33.7976 44.2612 33.8113 44.5076 33.8113L44.8773 33.8935L44.9046 33.8798C44.9731 33.7154 45.1237 33.6194 45.2606 33.4824L45.4934 33.8798L45.5892 33.8524C45.7809 33.7565 45.9862 33.7291 46.1916 33.6743L46.219 33.592C45.9862 33.5783 45.7672 33.592 45.5207 33.5783C45.4523 33.4139 45.3701 33.2769 45.3291 33.1398Z" fill="#D9232E"/>
<path d="M48.2452 32.5095C48.2178 32.5095 48.2178 32.5369 48.2178 32.5643C48.2178 32.578 48.2315 32.6054 48.2588 32.6054C48.2725 32.6054 48.2725 32.578 48.2862 32.5643C48.2725 32.5369 48.2725 32.5095 48.2452 32.5095Z" fill="#D9232E"/>
<path d="M48.0125 32.6466C48.0262 32.6466 48.0399 32.6329 48.0399 32.6055C48.0399 32.5918 48.0399 32.5644 48.0262 32.5507C47.9988 32.537 47.9714 32.5644 47.9714 32.5918C47.9714 32.6192 47.9714 32.6603 48.0125 32.6466Z" fill="#D9232E"/>
<path d="M48.1356 32.7425C48.1219 32.7699 48.163 32.7699 48.1766 32.7973C48.2177 32.7973 48.2451 32.7425 48.204 32.7151C48.1766 32.7151 48.1356 32.7151 48.1356 32.7425Z" fill="#D9232E"/>
<path d="M46.7254 30.3857C46.698 30.2898 46.6706 30.1939 46.6296 30.1117C46.6022 30.1939 46.5748 30.3035 46.5063 30.372C46.5748 30.3583 46.6433 30.3446 46.7254 30.3857Z" fill="#D9232E"/>
<path d="M42.139 32.9207C42.1253 32.9344 42.0979 32.9481 42.0979 32.9755C42.0979 33.0029 42.139 33.0303 42.1801 33.0303C42.2074 33.0303 42.2348 32.9892 42.2211 32.9618C42.2074 32.9207 42.1664 32.907 42.139 32.9207Z" fill="#D9232E"/>
<path d="M44.8909 29.0428C44.8909 29.0702 44.8909 29.125 44.9183 29.1387C44.9319 29.1387 44.9593 29.1524 44.973 29.1387C45.0141 29.1113 45.0141 29.0428 44.9867 29.0154C44.9593 28.988 44.9046 29.0017 44.8909 29.0428Z" fill="#D9232E"/>
<path d="M43.5766 31.0844C43.5629 31.0433 43.5766 31.0022 43.5355 31.0022C43.4808 30.9885 43.5218 30.9337 43.5081 30.8926L43.4671 30.9063C43.4534 30.9748 43.4534 31.057 43.3986 31.1118C43.3849 31.1803 43.3712 31.2762 43.3986 31.3448C43.4123 31.2625 43.4945 31.2077 43.5492 31.1529C43.604 31.1118 43.7409 31.1255 43.7135 31.0159L43.5766 31.0844Z" fill="#D9232E"/>
<path d="M45.2332 29.1525C45.2058 29.1525 45.1784 29.1936 45.1921 29.221C45.2058 29.2347 45.2195 29.2621 45.2469 29.2621C45.2743 29.2484 45.288 29.2347 45.288 29.2073C45.2743 29.1799 45.2606 29.1525 45.2332 29.1525Z" fill="#D9232E"/>
<path d="M45.1099 28.7824C45.0825 28.7824 45.0825 28.8235 45.0688 28.8509C45.0688 28.8647 45.0825 28.8921 45.1099 28.9058C45.151 28.9058 45.1647 28.8647 45.151 28.8372C45.1647 28.8098 45.1373 28.7687 45.1099 28.7824Z" fill="#D9232E"/>
<path d="M46.9171 28.3987C46.9581 28.3987 46.9718 28.3439 46.9718 28.3165C46.9581 28.3028 46.9445 28.2616 46.9034 28.2753C46.876 28.2891 46.8623 28.3165 46.8623 28.3439C46.876 28.3713 46.8897 28.3987 46.9171 28.3987Z" fill="#D9232E"/>
<path d="M42.1801 32.5369C42.2074 32.5369 42.2348 32.4821 42.1937 32.4684C42.1527 32.4546 42.1116 32.4546 42.0842 32.4821C42.0705 32.4958 42.0842 32.5095 42.0842 32.5095C42.1253 32.5369 42.1527 32.5506 42.1801 32.5369Z" fill="#D9232E"/>
<path d="M41.7144 32.7151C41.6871 32.7151 41.6597 32.7288 41.6597 32.7699C41.6734 32.7973 41.6871 32.8247 41.7144 32.8247C41.7418 32.8247 41.7829 32.7836 41.7692 32.7562C41.7555 32.7288 41.7418 32.7151 41.7144 32.7151Z" fill="#D9232E"/>
<path d="M47.2047 28.4398C47.2321 28.4261 47.2458 28.3987 47.2321 28.3713C47.2184 28.3439 47.1773 28.3302 47.15 28.3439C47.1363 28.3576 47.1226 28.3713 47.1089 28.3987C47.1226 28.4261 47.1636 28.4535 47.2047 28.4398Z" fill="#D9232E"/>
<path d="M46.9036 28.659C46.9173 28.6864 46.9446 28.7001 46.972 28.7001C46.9994 28.6864 47.0405 28.6727 47.0268 28.6316C47.0131 28.6042 46.972 28.5905 46.9446 28.6042C46.9173 28.6042 46.9036 28.6179 46.9036 28.659Z" fill="#D9232E"/>
<path d="M46.8899 30.0704C46.9036 30.1663 46.9173 30.2485 46.9447 30.3307C46.972 30.2759 47.0131 30.2485 47.0542 30.1937V30.1663C46.972 30.18 46.9447 30.0978 46.8899 30.0704Z" fill="#D9232E"/>
<path d="M49.368 32.6877C49.3543 32.6191 49.2858 32.5643 49.2174 32.5506C49.2037 32.4958 49.2174 32.441 49.231 32.3999C49.2721 32.3314 49.3406 32.2903 49.3953 32.2492C49.231 32.1944 49.0531 32.1532 48.8751 32.1121C48.834 32.1121 48.8614 32.071 48.8614 32.0573C48.8751 32.0025 48.9298 31.9751 48.9572 31.934C48.9298 31.8792 48.8888 31.8655 48.834 31.8381C48.5602 31.7696 48.3 31.6599 48.0673 31.4818L48.1768 31.1667C48.0947 30.9748 48.0536 30.7693 48.0536 30.55C48.2042 30.1938 48.3822 29.8375 48.5465 29.4812V29.4401L48.3548 29.4675C48.3274 29.4538 48.3411 29.4127 48.3411 29.3853C48.3822 29.3442 48.4233 29.2894 48.3959 29.2209C48.4507 29.0564 48.5191 28.9057 48.5739 28.7276L48.5602 28.7139C48.3411 28.7002 48.1084 28.7002 47.9167 28.6591C47.7935 27.9876 47.6155 27.3299 47.2732 26.7544C47.2048 26.9188 47.1226 27.097 47.0405 27.2614C46.9857 27.3573 46.9173 27.4532 46.8625 27.5628C46.8488 27.5765 46.8214 27.5491 46.8077 27.5354C46.7393 27.371 46.6708 27.1929 46.5887 27.0284C46.4791 27.0695 46.3833 27.1655 46.2601 27.1655C46.219 27.1929 46.2053 27.234 46.1642 27.2614C46.1095 26.9873 46.041 26.727 46.0273 26.4392C45.9178 26.1926 45.9452 25.8911 45.9041 25.6171H45.8904C45.6714 25.8911 45.4934 26.1789 45.3291 26.4803C45.2469 26.6174 45.1922 26.7818 45.0963 26.9051L44.7541 26.6996H44.7404C44.6445 26.7955 44.535 26.9188 44.4255 27.0147C44.2475 26.8914 44.1106 26.7818 43.9326 26.6722L43.5219 27.2066C43.3165 27.1655 43.1248 27.0695 42.9331 26.9873C42.8373 26.9462 42.7689 26.8777 42.6867 26.8366C42.6867 26.9736 42.7004 27.1244 42.7004 27.2614C42.1117 27.0147 41.564 26.6859 41.0164 26.357C41.3039 26.9325 41.6051 27.508 41.8379 28.111V28.1384C41.7694 28.1384 41.7146 28.0973 41.6599 28.0698C41.5914 28.0424 41.5503 27.9739 41.4819 27.9465C41.5093 28.111 41.5367 28.2891 41.523 28.4672L41.5093 28.4946C41.3861 28.522 41.2491 28.5357 41.1396 28.5905H40.6467C40.8247 28.8235 41.0027 29.0564 41.0985 29.3168L41.0849 29.3442L40.2086 29.6182L40.1812 29.632C40.2086 29.7416 40.2497 29.8512 40.2771 29.9608C39.88 30.2212 39.4009 30.3171 38.9354 30.4678C39.086 30.5089 39.2229 30.6048 39.3324 30.7145C39.3735 30.7693 39.4282 30.7967 39.4282 30.8652C39.3598 30.92 39.2776 30.9474 39.2092 30.9748C39.0586 31.0433 38.8806 31.0433 38.7574 31.1667C38.7437 31.1804 38.6889 31.1529 38.6889 31.1941L38.4835 31.2078C38.6068 31.3311 38.7711 31.4681 38.7574 31.6599C38.7163 31.6737 38.7437 31.7285 38.7437 31.7559C38.6752 31.8381 38.5794 31.9203 38.4835 31.9614C38.4699 31.9477 38.4699 31.934 38.4562 31.9066C38.3603 31.8792 38.4425 31.7833 38.4288 31.7285L38.3603 31.7696L38.3193 31.7148C38.2919 31.7422 38.2919 31.797 38.2645 31.8244C37.9907 31.6051 37.7853 31.3174 37.7442 30.9885C37.7442 30.9611 37.7305 30.92 37.6895 30.9474L37.621 31.1392H37.6073L37.3335 30.7693L37.1555 30.1527L37.1418 30.139C36.7859 30.3308 36.7448 30.7282 36.7037 31.0981C36.69 31.3996 36.7722 31.6737 36.8269 31.934C36.7585 31.9066 36.7037 31.8381 36.6353 31.797C36.7311 32.1395 36.8817 32.4684 37.0871 32.7699C37.1281 32.8521 37.2103 32.9206 37.2377 33.0028C37.1144 33.0987 36.9775 33.1535 36.8817 33.2769C36.9365 33.2906 36.9912 33.3043 37.046 33.318C37.2377 33.3728 37.443 33.4002 37.6073 33.4961C37.6484 33.5235 37.6895 33.5783 37.6758 33.6331C37.6621 33.6879 37.6073 33.6879 37.5662 33.7016C37.5662 33.7428 37.5799 33.7839 37.621 33.7976C37.6621 33.825 37.7168 33.8113 37.7579 33.7839C37.7853 33.8113 37.8127 33.8524 37.8264 33.8935C37.7579 33.9346 37.8675 33.9894 37.799 34.0168C37.7579 34.0031 37.7579 34.1675 37.7168 34.1538C37.6621 34.2086 37.6895 34.2086 37.6073 34.2635C37.4841 34.3457 37.5252 34.3183 37.402 34.4279C37.2787 34.5238 37.2103 34.5649 37.1966 34.5649C37.1829 34.5786 37.0323 34.6882 36.9775 34.7431L36.8269 34.9212C36.7585 35.0719 36.7448 35.2912 36.7722 35.4556C36.7995 35.5515 36.8406 35.7571 36.9228 35.8119C36.9501 35.7571 37.1144 35.5515 37.1008 35.483C37.1144 35.3734 37.1555 35.2775 37.2514 35.2089C37.2924 35.1952 37.3198 35.1541 37.3609 35.1815C37.3883 35.2363 37.3883 35.2912 37.3746 35.346C37.3746 35.4556 37.4293 35.5789 37.4978 35.6611C37.6347 35.8119 37.8675 35.9763 38.0591 35.9078C37.977 35.7571 37.8948 35.4419 37.9359 35.2638C37.9359 35.2501 37.9633 35.2226 37.977 35.2364C37.9907 35.3049 38.0454 35.4693 38.1002 35.5241C38.2234 35.6748 38.3056 35.8119 38.5109 35.7845C38.4835 35.7159 38.5246 35.483 38.4972 35.4145C38.4562 35.3597 38.5383 35.2775 38.4562 35.2501C38.4562 35.2226 38.4562 35.1815 38.4835 35.1541C38.5383 35.1541 38.5657 35.0856 38.6205 35.113L38.7984 34.9897V34.9486C38.8395 34.8801 38.9217 34.9212 38.9764 34.9075C38.9764 34.8253 39.0586 34.8801 39.086 34.8527C39.0996 34.8664 39.1407 34.8664 39.1544 34.8938C39.1818 35.0034 39.1407 35.113 39.0586 35.1815C38.9901 35.2501 39.0038 35.4145 39.0312 35.4967C39.2639 35.4008 39.4967 35.2638 39.6473 35.0582C39.7294 34.8801 39.7979 34.5649 39.661 34.4005C39.5378 34.2635 39.3735 34.2086 39.2092 34.1538C39.1681 34.0716 39.2639 34.0305 39.2639 33.9483C39.2913 33.9757 39.3324 34.0031 39.3735 34.0305L39.6473 34.0168L39.7842 34.1127L40.0717 34.099C40.1128 34.2224 40.2634 34.1538 40.3592 34.1675C40.414 34.1538 40.414 34.2086 40.414 34.2361C40.4688 34.2361 40.5372 34.2086 40.5783 34.2635C40.6057 34.2498 40.6057 34.1949 40.6467 34.1812C40.6604 34.2086 40.6878 34.1675 40.7152 34.1812L40.7289 34.2361C40.77 34.2361 40.7973 34.2224 40.8247 34.2498C40.8384 34.3046 40.8384 34.3457 40.8795 34.3868V34.3731C40.9206 34.3183 40.989 34.2498 41.0575 34.3046C41.0985 34.332 41.0849 34.3594 41.0849 34.4005C41.0712 34.4553 41.0301 34.4005 40.989 34.4142C40.9479 34.3868 40.8795 34.4142 40.8247 34.4416C40.7563 34.4279 40.7426 34.5101 40.6878 34.5238L40.6194 34.6471C40.5509 34.6608 40.5235 34.7705 40.4688 34.8253C40.4277 34.7979 40.2908 35.0171 40.2908 35.0171C40.2634 35.113 40.2908 35.3186 40.2908 35.3186C40.3182 35.4556 40.3182 35.5515 40.414 35.6885C40.6057 35.8119 40.7836 35.8804 41.0164 35.853C40.9206 35.7296 40.9206 35.62 40.9069 35.4693C40.9753 35.5789 41.0027 35.6337 41.1122 35.7296C41.2355 35.853 41.4408 35.8941 41.6051 35.8256C41.5504 35.6885 41.3587 35.5104 41.5367 35.3734C41.5777 35.4419 41.6188 35.4967 41.6736 35.5515L41.6873 35.6748C41.7968 35.7296 41.7831 35.7571 41.8926 35.8256C41.9611 35.853 42.1664 35.8256 42.2486 35.8119C42.2486 35.7433 42.2212 35.7433 42.2075 35.6748C42.1664 35.5652 42.098 35.5104 42.1391 35.3734C42.1391 35.346 42.1664 35.346 42.1938 35.346C42.2075 35.3186 42.2486 35.3186 42.276 35.346L42.3855 35.2226C42.3581 35.1678 42.3855 35.1267 42.4266 35.0856C42.4813 35.0582 42.6046 35.113 42.6319 35.0308C42.7689 35.1404 42.9879 35.0582 43.1248 35.1815C43.1796 35.2089 43.1933 35.2912 43.2617 35.3049C43.2617 35.4008 43.248 35.5104 43.1796 35.5926L43.1111 35.7433C43.2207 35.7708 43.3576 35.7708 43.426 35.7022C43.5356 35.6474 43.6862 35.5378 43.782 35.4282L43.8505 35.3049C43.9052 35.2089 43.8915 35.1404 43.9052 35.0582L43.9189 35.0445C44.2064 35.0582 44.4665 35.1541 44.7267 35.2501L44.8499 35.4145C44.891 35.4008 44.932 35.3871 44.9731 35.3597C45.0553 35.3049 45.0416 35.1952 45.1237 35.1541C45.3291 35.0993 45.5345 35.0719 45.6987 34.9486L45.7809 34.9349C45.8083 34.9075 45.8904 34.8938 45.8767 34.9212C45.822 34.976 45.7809 35.0856 45.7398 35.1541C45.6987 35.2912 45.7261 35.3597 45.7535 35.5241C45.822 35.6611 45.9999 35.9352 46.1506 35.9352C46.1642 35.8256 46.1506 35.6611 46.1506 35.5515L46.1779 35.4556C46.1779 35.3734 46.219 35.346 46.2738 35.3049C46.3148 35.3323 46.3696 35.346 46.4244 35.3597C46.5476 35.3871 46.6571 35.3323 46.753 35.2364C46.7803 35.2226 46.8077 35.2501 46.8351 35.2501C46.8351 35.2363 46.8214 35.2226 46.8351 35.2089H46.8762V35.1815C46.8762 35.1267 46.9446 35.1267 46.9857 35.1267C47.0405 35.1678 47.0952 35.2226 47.1637 35.2638L47.1774 35.2501C47.2732 35.3186 47.3827 35.3871 47.4649 35.4693V35.4967C47.4649 35.6063 47.3691 35.7159 47.2595 35.7433C47.3691 35.8119 47.5197 35.8804 47.6429 35.7982C47.8209 35.7571 47.9715 35.5789 47.9988 35.4008H48.0125C48.0399 35.4282 48.0399 35.4693 48.0262 35.4967C47.9715 35.5926 47.8756 35.6885 47.8209 35.7845L47.9441 35.7982C48.1768 35.8119 48.3548 35.6337 48.4917 35.483C48.4917 35.5789 48.4096 35.7159 48.3274 35.7982C48.5876 35.8119 48.834 35.7022 49.012 35.4967C49.012 35.4967 49.1626 35.1952 49.1489 35.113C49.1489 35.0719 49.1078 35.0719 49.1078 35.0719C49.1078 34.9897 49.1215 34.976 49.0668 34.9212C49.0668 34.9212 48.9435 34.7705 48.9298 34.7568C48.9298 34.7019 48.8203 34.5786 48.7929 34.5512C48.7108 34.5375 48.7382 34.4142 48.5876 34.3731C48.4643 34.2909 48.3 34.2635 48.1631 34.3457C48.1084 34.3594 48.0262 34.3594 47.9988 34.332C48.0673 34.2635 48.1768 34.2635 48.259 34.2086C48.3548 34.099 48.478 34.0442 48.6013 34.0168L48.5739 33.962C48.6697 33.8524 48.5054 33.7702 48.5328 33.6605C48.5465 33.6468 48.5602 33.6742 48.5739 33.6605C48.656 33.4002 48.9298 33.3043 49.1489 33.1946C49.1352 33.1261 49.0531 33.085 48.9846 33.0713C48.9709 33.0439 48.9846 33.0028 48.9846 32.9754C49.1352 32.9206 49.231 32.7699 49.368 32.6877ZM37.3883 32.7288C37.2924 32.5917 37.2103 32.4684 37.1692 32.3177C37.2103 32.304 37.265 32.3177 37.2924 32.3314C37.2787 32.2355 37.1966 32.1532 37.1829 32.0573C37.1281 31.9888 37.1144 31.9066 37.0871 31.8244C36.9912 31.5229 36.9775 31.1667 37.0186 30.8378C37.0323 30.7693 37.0323 30.6871 37.0734 30.6322C37.1281 30.783 37.1692 30.9474 37.2514 31.0844C37.3609 31.2078 37.443 31.3311 37.5389 31.4681V31.4955C37.5936 31.564 37.6347 31.6462 37.7032 31.7148C37.7168 31.6599 37.7305 31.6188 37.7579 31.564C37.8538 31.7833 38.0317 31.9751 38.2097 32.1532L38.196 32.1807C38.0865 32.1532 37.9907 32.1258 37.8811 32.0847C37.8538 32.071 37.8127 32.071 37.7853 32.0436H37.7579C37.7716 32.0984 37.8127 32.1532 37.8264 32.2081L37.8538 32.3451C37.8127 32.3588 37.7716 32.3451 37.7442 32.3314L37.6758 32.3588L37.6073 32.3177C37.5252 32.3177 37.443 32.304 37.3609 32.3177C37.4156 32.4273 37.5799 32.5095 37.5389 32.6602C37.5662 32.6739 37.5389 32.7151 37.5389 32.7425C37.5115 32.7562 37.4841 32.7973 37.4978 32.8247C37.443 32.811 37.4156 32.7562 37.3883 32.7288ZM37.3472 35.0582L37.1008 35.2364C37.0734 35.2775 36.9775 35.4419 36.9638 35.4967C36.9365 35.4145 36.9638 35.2226 36.9775 35.1404C37.0186 35.0034 37.0871 34.9212 37.1829 34.8801C37.2377 34.8664 37.2924 34.8938 37.3335 34.9349C37.3198 34.9623 37.3472 34.9349 37.3472 34.9623C37.3609 34.976 37.3609 35.0171 37.3609 35.0308L37.3472 35.0582ZM37.5662 34.7156C37.5389 34.7156 37.4978 34.7156 37.4704 34.7156L37.4841 34.8664C37.443 34.8253 37.3883 34.7979 37.3335 34.7979C37.3061 34.7294 37.402 34.7568 37.402 34.7156C37.3883 34.6471 37.4156 34.6197 37.4567 34.5923L37.5115 34.6197C37.5799 34.5786 37.6073 34.4553 37.7032 34.4964C37.6895 34.5375 37.6621 34.5649 37.6484 34.606C37.621 34.6197 37.5799 34.6197 37.5526 34.6608C37.5662 34.6745 37.5799 34.7019 37.5662 34.7156ZM37.5936 35.3597C37.5799 35.2363 37.621 35.1404 37.6758 35.0445C37.7032 35.0171 37.7579 35.0171 37.7853 35.0308C37.8127 35.0445 37.8401 35.0856 37.8401 35.113C37.8264 35.2363 37.7579 35.3049 37.7853 35.4419C37.799 35.5104 37.799 35.5652 37.8127 35.6474L37.8401 35.7708C37.7168 35.7159 37.621 35.4967 37.5936 35.3597ZM38.0728 34.6334H38.0591C38.0454 34.6471 37.9907 34.606 37.9907 34.6471C37.9907 34.7568 37.977 34.8664 37.9633 34.976C37.9085 34.9486 37.8401 34.9075 37.7579 34.9212C37.7305 34.8938 37.7305 34.8527 37.7442 34.8116C37.7579 34.7705 37.799 34.7568 37.8401 34.7294C37.8948 34.6608 37.8948 34.5786 37.9633 34.5375C37.977 34.5375 37.9907 34.5512 38.0181 34.5375C38.0728 34.5238 38.1276 34.5375 38.1823 34.5238C38.1823 34.5238 38.1823 34.5101 38.196 34.5101L38.0728 34.6334ZM38.3329 35.3049C38.3466 35.3597 38.3603 35.5789 38.3603 35.6337C38.3056 35.6063 38.2234 35.3871 38.2234 35.3186L38.1823 35.2364V35.0034C38.2234 34.976 38.2782 35.0034 38.3193 35.0171C38.3329 35.0308 38.3603 35.0445 38.3603 35.0719C38.3466 35.1541 38.3877 35.2364 38.3329 35.3049ZM39.5378 34.9897C39.5104 35.0993 39.4145 35.1541 39.3324 35.2226L39.1955 35.3186C39.2229 35.2501 39.3598 35.0719 39.3598 34.9897C39.3735 34.9349 39.3598 34.8801 39.3872 34.8253C39.4282 34.7979 39.483 34.7705 39.5378 34.7705C39.5788 34.839 39.5241 34.9075 39.5378 34.9897ZM39.3461 34.4005C39.3598 34.4005 39.3735 34.4005 39.3872 34.4142C39.3872 34.4416 39.4009 34.469 39.4145 34.4827C39.4693 34.4964 39.483 34.5512 39.5241 34.5786L39.5104 34.6745C39.4556 34.6882 39.4282 34.7431 39.3598 34.7294C39.305 34.7431 39.2639 34.839 39.2092 34.7431C39.1818 34.7431 39.1818 34.6882 39.1681 34.6745L39.1407 34.6882C39.127 34.6745 39.1544 34.6334 39.127 34.606C39.0586 34.6471 38.9627 34.6608 38.9627 34.7568C38.949 34.7705 38.9217 34.7705 38.8943 34.7705L38.8806 34.7842C38.8121 34.7568 38.8258 34.6882 38.7984 34.6334C38.7437 34.6882 38.6889 34.7705 38.7026 34.8527C38.6889 34.8801 38.6615 34.9075 38.6342 34.9212C38.5931 34.8801 38.5657 34.9212 38.5246 34.9486C38.4972 34.9486 38.4835 34.8938 38.4425 34.8938C38.4014 34.8801 38.3329 34.8664 38.2919 34.8938C38.2508 34.8801 38.2371 34.839 38.2371 34.7979L38.2919 34.7842V34.6882C38.3466 34.6745 38.4014 34.6608 38.4288 34.606C38.4288 34.5923 38.4288 34.5786 38.4425 34.5649C38.4972 34.606 38.5109 34.5101 38.5657 34.4964C38.6615 34.4827 38.7437 34.5101 38.8258 34.4279H38.949C38.9627 34.4553 38.949 34.4964 38.9764 34.5238C39.0175 34.4827 39.0996 34.469 39.1133 34.4005C39.1544 34.3868 39.2229 34.4279 39.2366 34.3731C39.2502 34.4005 39.305 34.4553 39.3461 34.4005ZM40.6604 34.0031L40.5372 34.0168L40.4961 33.962C40.4688 33.962 40.4277 33.9894 40.4277 33.9483C40.4414 33.9346 40.4961 33.9346 40.4961 33.8935L40.6194 33.8798C40.633 33.9209 40.6878 33.8798 40.6878 33.9346L40.6604 34.0031ZM40.7836 35.8119C40.6057 35.7022 40.4824 35.483 40.5098 35.2912C40.5235 35.2638 40.5509 35.2363 40.5783 35.2226C40.633 35.2226 40.7015 35.1952 40.7152 35.2638C40.6741 35.4419 40.77 35.6885 40.8658 35.8256L40.7836 35.8119ZM40.9479 34.8801C40.9479 34.9486 40.8932 35.0034 40.8658 35.0582C40.8795 35.0856 40.8658 35.113 40.8658 35.1404C40.8521 35.1404 40.8384 35.1267 40.8247 35.1267C40.7426 35.1267 40.7015 35.1267 40.6194 35.1267C40.6194 35.1404 40.6194 35.1404 40.633 35.1541C40.6194 35.1678 40.6057 35.1678 40.5783 35.1541C40.5783 35.1267 40.592 35.0993 40.6194 35.0993C40.6467 35.0856 40.6878 35.113 40.6878 35.0719C40.7015 35.0171 40.6467 34.9349 40.7152 34.9075C40.7289 34.8938 40.7836 34.9075 40.7973 34.8801C40.7973 34.839 40.811 34.7842 40.8384 34.7705C40.8658 34.7294 40.9206 34.6882 40.9206 34.6334C40.9753 34.6471 41.0575 34.6471 41.1122 34.6197C41.1259 34.6334 41.1533 34.6197 41.1533 34.6471C41.1533 34.6882 41.0849 34.6882 41.0985 34.7431C41.0575 34.7842 40.989 34.8116 40.9479 34.8801ZM41.1396 35.5104C41.1259 35.4556 41.1396 35.3734 41.1533 35.3323L41.2491 35.2912C41.2628 35.3049 41.3039 35.2912 41.3039 35.2775C41.3176 35.2638 41.3313 35.2775 41.345 35.2912C41.3724 35.3186 41.345 35.346 41.345 35.3734C41.345 35.4282 41.3861 35.5104 41.345 35.5378C41.3587 35.6337 41.3724 35.7571 41.4408 35.8393C41.3313 35.7845 41.1807 35.62 41.1396 35.5104ZM41.7283 34.8527C41.6325 34.8938 41.5503 34.9486 41.523 35.0445C41.523 35.0719 41.5093 35.113 41.523 35.1404C41.564 35.1678 41.5503 35.2363 41.564 35.2775C41.4956 35.2775 41.4682 35.1815 41.4134 35.1678C41.3176 35.1541 41.2765 35.2226 41.2081 35.2501C41.1533 35.2363 41.1533 35.1678 41.1396 35.1267C41.1259 35.0308 41.2081 34.9623 41.2765 34.8938H41.3313C41.345 34.8938 41.3724 34.8664 41.3861 34.839C41.3861 34.8116 41.3861 34.7842 41.4271 34.7842C41.4682 34.7979 41.5093 34.7842 41.5367 34.7705L41.5503 34.7019C41.564 34.6882 41.5777 34.7156 41.6051 34.7019C41.6051 34.6745 41.5914 34.6334 41.6051 34.606L41.7283 34.6197V34.6334C41.7831 34.606 41.8242 34.6608 41.8652 34.6471C41.8926 34.6608 41.8652 34.6882 41.8652 34.7019L41.7283 34.8527ZM41.8926 35.6063C41.8652 35.5926 41.8242 35.5926 41.8379 35.5515L41.8105 35.4967C41.8105 35.4282 41.7694 35.346 41.7831 35.2775C41.8242 35.2363 41.8926 35.2363 41.9474 35.2501C42.0158 35.3186 41.9885 35.4145 42.0158 35.5104C42.0158 35.5789 42.0569 35.7571 42.0706 35.8119C42.0295 35.7845 41.8926 35.6885 41.8926 35.6063ZM42.5909 34.9623L42.4677 35.0308C42.4266 35.0308 42.4403 34.9897 42.4266 34.976C42.3855 34.9349 42.317 34.9212 42.2486 34.9212C42.2349 34.9486 42.2486 34.9897 42.2486 35.0171C42.276 35.0445 42.276 35.0719 42.3034 35.0993C42.276 35.1678 42.2349 35.2226 42.1528 35.2638C42.1391 35.2226 42.098 35.1815 42.0569 35.1678C41.9885 35.1404 41.9337 35.1815 41.8652 35.1952C41.8516 35.1678 41.8379 35.2089 41.8105 35.1952C41.7968 35.1404 41.7557 35.0856 41.7968 35.0308C41.8105 35.0034 41.8516 35.0171 41.8789 35.0171C41.9063 34.9897 41.9337 34.9486 41.9474 34.9075C42.0295 34.8801 42.0843 34.8253 42.1254 34.7568C42.1391 34.7431 42.1801 34.7431 42.2075 34.7431C42.2349 34.7431 42.2349 34.7842 42.2623 34.7568C42.2897 34.7431 42.317 34.7019 42.317 34.6745C42.317 34.6608 42.3034 34.6334 42.317 34.6197C42.3855 34.606 42.3718 34.7019 42.4266 34.7156C42.4813 34.7568 42.5361 34.7019 42.5772 34.6745C42.5909 34.6882 42.5772 34.7294 42.5909 34.7568C42.6046 34.8253 42.6456 34.9212 42.5909 34.9623ZM43.3576 35.0582H43.3165C43.3713 35.0719 43.3165 35.1267 43.3302 35.1678H43.3165C43.2617 35.1267 43.207 35.0719 43.1385 35.0582C43.1111 35.0171 43.1522 35.0034 43.1522 34.9623L43.1111 34.8801C43.0701 34.8801 42.9879 34.8527 42.9879 34.9212C42.9879 34.9486 42.9742 34.9623 42.9605 34.9897C42.9195 35.0034 42.8921 35.0034 42.851 34.9897C42.7962 34.9349 42.7825 34.839 42.7962 34.7568L42.8647 34.6745C42.9058 34.6882 42.9468 34.6882 42.9605 34.7431C43.029 34.7431 43.0974 34.7294 43.1385 34.6608C43.1933 34.6745 43.2344 34.7294 43.3028 34.7156C43.3165 34.7156 43.3439 34.7156 43.3576 34.7294C43.3986 34.7294 43.4671 34.7019 43.5082 34.7431C43.5356 34.7842 43.5629 34.8116 43.5766 34.8664C43.5903 34.8801 43.6177 34.8664 43.6314 34.8801C43.6588 34.8801 43.6998 34.9075 43.6998 34.9349C43.6998 34.9486 43.6998 34.9486 43.6998 34.9486C43.6862 34.9486 43.6725 34.9349 43.6451 34.9212C43.5629 34.9212 43.4945 34.9349 43.426 34.9349C43.4123 35.0171 43.3576 35.0171 43.3576 35.0582ZM43.6725 35.4693C43.6177 35.5378 43.5629 35.5789 43.4945 35.62L43.385 35.7022C43.4671 35.5652 43.6314 35.2912 43.5629 35.113C43.5492 35.0993 43.5492 35.0856 43.5492 35.0719C43.604 35.0445 43.6862 35.0582 43.7409 35.0993C43.782 35.2226 43.7683 35.3734 43.6725 35.4693ZM46.3012 35.1952C46.2053 35.1815 46.1916 35.2775 46.1369 35.346C46.0821 35.4419 46.0684 35.7022 46.0273 35.7982C46.0136 35.7571 45.9589 35.6748 45.9315 35.5789C45.9178 35.483 45.8904 35.4145 45.9041 35.3323C45.9315 35.2089 45.9726 35.0993 46.0958 35.0719C46.1506 35.0582 46.219 35.0719 46.2601 35.113C46.3012 35.1404 46.3148 35.1541 46.3012 35.1952ZM46.9446 34.9349L46.9309 35.0308C46.8762 35.0308 46.8214 35.0445 46.7803 35.0856C46.7667 35.0582 46.7256 35.0171 46.6845 35.0308L46.6297 35.0856C46.6434 35.1404 46.616 35.1815 46.575 35.2089C46.5339 35.2226 46.4928 35.2501 46.4381 35.2364C46.4518 35.1952 46.4654 35.1267 46.4244 35.0856C46.4107 35.0582 46.3696 35.0445 46.3696 35.0171C46.3012 34.9897 46.2327 34.9212 46.1506 34.9486C46.2053 34.9075 46.3012 34.8664 46.3559 34.8116C46.3696 34.8527 46.4107 34.8664 46.4518 34.8801C46.5476 34.8801 46.5476 34.7842 46.6434 34.7979L46.6708 34.7842C46.6845 34.7979 46.6845 34.839 46.6982 34.8664C46.7666 34.8664 46.8488 34.7568 46.9173 34.839C46.9309 34.839 46.9583 34.8253 46.972 34.8253C46.9994 34.8664 46.9583 34.8938 46.9446 34.9349ZM47.5607 35.3186C47.5607 35.3323 47.5607 35.346 47.547 35.346C47.5197 35.3323 47.4923 35.2912 47.4923 35.2638V35.2364C47.4649 35.1952 47.3964 35.2501 47.3827 35.1815C47.3827 35.1267 47.3827 35.0856 47.3964 35.0445C47.3827 35.0171 47.3554 34.9623 47.328 34.9623C47.2869 35.0171 47.2321 35.0445 47.2185 35.0993C47.1911 35.0993 47.1637 35.0582 47.1637 35.0308C47.1774 35.0034 47.2321 34.9897 47.2595 34.9623C47.2869 34.8938 47.2185 34.8253 47.2458 34.7568C47.2595 34.7294 47.2869 34.7019 47.3143 34.6745H47.328C47.328 34.6608 47.3143 34.6745 47.3143 34.6608C47.3554 34.6334 47.3554 34.5786 47.4101 34.5923C47.4649 34.6334 47.3691 34.6882 47.4512 34.7156C47.4786 34.7294 47.5197 34.7156 47.547 34.7568C47.5744 34.7568 47.6018 34.7156 47.6292 34.7431C47.6703 34.7979 47.6292 34.9075 47.6976 34.9486C47.7387 34.976 47.8209 34.9897 47.8072 35.0445C47.8756 35.0582 47.8072 35.113 47.8209 35.1541C47.7798 35.1541 47.7524 35.1678 47.725 35.1678C47.6566 35.2226 47.5881 35.2501 47.5607 35.3186ZM47.6566 35.7708C47.6566 35.7433 47.684 35.6337 47.6976 35.6063C47.7113 35.5378 47.7387 35.4556 47.6566 35.4145C47.6566 35.3597 47.684 35.3323 47.725 35.3049C47.7798 35.2912 47.8209 35.2775 47.8756 35.3049C47.903 35.3186 47.9304 35.3734 47.9441 35.4008C47.9304 35.5378 47.8072 35.7159 47.6566 35.7708ZM48.9846 35.2089C49.012 35.2226 49.0668 35.2363 49.0668 35.2775C49.0531 35.4282 48.9161 35.62 48.7655 35.6748C48.8203 35.5926 48.8751 35.4693 48.8614 35.3871C48.8614 35.3186 48.7792 35.2775 48.8614 35.2364C48.8888 35.1952 48.9298 35.2089 48.9846 35.2089ZM48.5054 34.6197C48.5328 34.6334 48.5739 34.6471 48.5602 34.7019C48.6013 34.7431 48.6149 34.839 48.7108 34.7979H48.7245C48.7655 34.8527 48.6971 34.9486 48.7929 34.976C48.8066 34.976 48.8203 34.9897 48.834 34.976C48.8614 34.9897 48.8888 34.9897 48.9025 35.0308C48.8888 35.0445 48.9161 35.0856 48.8888 35.0856C48.7929 35.0719 48.7382 35.1404 48.6697 35.1678C48.6697 35.113 48.6971 35.0445 48.656 34.9897C48.6013 34.9349 48.478 34.9075 48.4917 34.7979C48.4643 34.7568 48.4917 34.6882 48.4507 34.6471C48.4507 34.6334 48.437 34.6334 48.437 34.6334C48.4643 34.6197 48.4917 34.6334 48.5054 34.6197ZM48.478 35.2364C48.5328 35.2638 48.5054 35.346 48.4917 35.4008C48.478 35.483 48.437 35.5241 48.3822 35.5926C48.3411 35.6474 48.2453 35.7022 48.1905 35.7159C48.259 35.62 48.3411 35.483 48.2727 35.3734C48.2727 35.346 48.1905 35.3186 48.2453 35.2912C48.3137 35.2363 48.4096 35.2364 48.478 35.2364ZM48.1631 34.7979C48.259 34.7842 48.259 34.9075 48.3274 34.9486C48.3274 34.976 48.3411 34.976 48.3411 35.0034C48.3411 35.0445 48.3411 35.0856 48.3548 35.1267C48.2864 35.113 48.2727 35.2089 48.2042 35.1815C48.1905 35.1952 48.1905 35.1952 48.1768 35.1952C48.1631 35.2226 48.1358 35.2638 48.1084 35.2912C48.1084 35.2363 48.1494 35.1678 48.1221 35.113C48.1084 34.9897 47.9715 34.9486 47.9715 34.8253C47.9441 34.7979 47.903 34.7705 47.903 34.7156C47.9578 34.7156 47.9988 34.6745 48.0399 34.6608C48.1084 34.6745 48.0673 34.7842 48.1631 34.7979ZM48.4917 33.3591C48.5465 33.3865 48.6013 33.3591 48.6423 33.3865C48.5191 33.4961 48.3822 33.6057 48.2727 33.7428C48.2864 33.7976 48.3 33.8524 48.3411 33.8935C48.3959 33.8935 48.3822 33.7839 48.437 33.825C48.4643 33.8798 48.3959 33.8798 48.3685 33.8935C48.3137 33.9757 48.2453 34.0168 48.1768 34.0579C48.0673 34.1538 47.9441 34.2498 47.8619 34.3731C47.8482 34.4005 47.8619 34.4553 47.8072 34.4553C47.7935 34.4553 47.7798 34.4553 47.7661 34.4553C47.7524 34.4827 47.6976 34.4827 47.6566 34.4964C47.6155 34.4827 47.5881 34.4416 47.547 34.4279L47.5334 34.4142C47.5197 34.4279 47.4923 34.4142 47.4786 34.4142C47.3554 34.4005 47.2321 34.469 47.1363 34.5649C47.1226 34.5649 47.1089 34.5786 47.0952 34.5649C47.0405 34.5649 46.9994 34.6882 46.9583 34.5923C46.8899 34.6197 46.8488 34.5649 46.8077 34.5375L46.7256 34.5512L46.6297 34.4964C46.6297 34.5101 46.616 34.5101 46.6024 34.5101C46.5613 34.4553 46.4928 34.3868 46.4791 34.332C46.4518 34.332 46.4654 34.3046 46.4654 34.2909C46.4791 34.2635 46.5065 34.2224 46.5339 34.2086C46.5476 34.1812 46.616 34.1812 46.6297 34.1264V34.0031C46.616 33.9757 46.575 33.9346 46.575 33.9072C46.575 33.8935 46.5613 33.8798 46.5613 33.8661C46.6982 33.7702 46.8488 33.7016 46.972 33.6057H46.9857V33.592L47.4923 33.2221C47.4512 33.1809 47.4101 33.1261 47.3827 33.085C47.3006 33.0576 47.2732 32.9754 47.2048 32.9343C47.1774 33.0302 47.1774 33.1398 47.1637 33.2358C47.15 33.2632 47.1089 33.2358 47.1089 33.2769C47.0952 33.2906 47.0815 33.318 47.0542 33.318C46.9857 33.3454 46.9309 33.4002 46.8488 33.4139L46.8351 33.3454C46.7803 33.3454 46.7256 33.3043 46.6708 33.3454L46.575 33.2632C46.5065 33.2769 46.4518 33.2358 46.397 33.2084L46.3422 33.2358C46.3559 33.2769 46.3833 33.3043 46.4107 33.3317L46.5476 33.5098C46.5202 33.5509 46.5065 33.5783 46.4518 33.6194L46.3833 33.6057C46.3285 33.7154 46.2327 33.7702 46.1369 33.8387C46.2053 33.8935 46.3285 33.8661 46.3696 33.9757C46.3833 34.0031 46.397 34.0442 46.3833 34.0716C46.3285 34.0716 46.3012 34.1538 46.2464 34.1127C46.1779 34.1264 46.1095 34.1812 46.041 34.2086C46.0273 34.2361 46.0821 34.2498 46.0821 34.2772C46.0821 34.2772 46.0684 34.2772 46.0684 34.2909C46.0821 34.2772 46.0958 34.3183 46.1095 34.3183C46.1369 34.3457 46.1779 34.3731 46.1779 34.4142C46.1642 34.4416 46.1369 34.4964 46.0958 34.5101C46.1095 34.5512 46.0547 34.5101 46.0547 34.5512C45.6851 34.9075 45.1922 35.0719 44.6719 35.0856C44.6445 35.0856 44.6172 35.0856 44.6035 35.0719C44.5076 35.0582 44.4118 35.0445 44.3159 35.0171C44.3023 35.0308 44.2886 35.0034 44.2749 35.0034C44.1517 34.976 44.0011 34.9623 43.8778 34.9486C43.8778 34.8527 43.8231 34.7705 43.7546 34.7156L43.6314 34.6471C43.5903 34.5786 43.5356 34.5512 43.5219 34.4827L43.4808 34.469C43.3028 34.4827 43.1111 34.5101 42.9331 34.5101C42.9605 34.4553 43.0016 34.4279 43.0427 34.4005L42.9058 34.3868C42.9058 34.332 42.851 34.3183 42.8099 34.3046C42.7962 34.2909 42.7825 34.2498 42.7415 34.2498C42.7415 34.1949 42.7962 34.1812 42.8236 34.1401C42.7962 34.099 42.7415 34.0579 42.7552 34.0031C42.7552 33.962 42.8236 33.9757 42.8099 33.9209C42.8236 33.8798 42.8373 33.8387 42.8373 33.7839C42.8784 33.7428 42.9058 33.6879 42.9879 33.7016C43.029 33.6468 43.1111 33.7016 43.1659 33.6742C43.1659 33.5783 43.1659 33.5098 43.1659 33.4139C43.1111 33.4139 43.1248 33.3454 43.1111 33.2906H43.0974C43.0837 33.2358 43.1385 33.1672 43.0564 33.1535V33.0576C43.0016 33.0165 42.9468 32.9754 42.9058 32.9343V33.3043C42.8921 33.318 42.8784 33.2906 42.8647 33.3043C42.851 33.3728 42.8647 33.455 42.8647 33.5235C42.8236 33.5372 42.7962 33.5646 42.7689 33.592C42.7415 33.5783 42.7278 33.5509 42.7141 33.5235C42.6456 33.5235 42.5909 33.4961 42.5361 33.5098C42.5361 33.5372 42.5635 33.5646 42.5635 33.592C42.5909 33.6057 42.6183 33.6468 42.6319 33.6879C42.6319 33.7291 42.6319 33.7702 42.6183 33.7976C42.5635 33.7702 42.6183 33.7291 42.5909 33.7016L42.454 33.5783C42.4266 33.6194 42.4266 33.6879 42.3992 33.7291V33.7565C42.3171 33.7016 42.3581 33.5783 42.2623 33.5509C42.2623 33.5372 42.2486 33.5235 42.2349 33.5098C42.1938 33.5235 42.1528 33.4961 42.1254 33.5235L42.1391 33.7154L42.1664 33.7291L42.1801 33.8798C42.1391 33.8935 42.1391 33.9346 42.1117 33.962C41.9885 33.9894 41.9611 34.1401 41.9337 34.2498H41.9611C42.0158 34.1949 42.1117 34.1812 42.1391 34.1127C42.1938 34.1401 42.2486 34.0579 42.3034 34.0442L42.3718 34.0305C42.4129 34.0716 42.317 34.099 42.3718 34.1264L42.4129 34.1675L42.5772 34.0579C42.6046 34.1127 42.5772 34.1538 42.5361 34.1949C42.4677 34.2086 42.5087 34.2909 42.495 34.3457C42.5635 34.3594 42.6456 34.2909 42.6867 34.3594C42.7278 34.4142 42.7825 34.4553 42.7689 34.5238L42.7415 34.5512C42.7004 34.4964 42.6593 34.469 42.6046 34.4416C42.5635 34.4553 42.5498 34.4279 42.5498 34.4005C42.4129 34.3868 42.2623 34.3594 42.1801 34.469C42.1664 34.469 42.1391 34.4827 42.1254 34.4964C42.0843 34.4964 42.0569 34.469 42.0158 34.4553C41.9748 34.469 41.9474 34.4553 41.9063 34.4416C41.7968 34.4553 41.701 34.3731 41.5914 34.3457C41.5777 34.3594 41.6051 34.3868 41.5914 34.4142C41.5503 34.4142 41.5093 34.4142 41.4819 34.4553H41.4271H41.4408L41.4271 34.4416V34.469H41.3313C41.3176 34.4005 41.3313 34.332 41.3313 34.2635C41.2628 34.1949 41.167 34.1812 41.0849 34.1675C41.0164 34.0716 40.8658 33.9894 40.8658 33.8661C40.8384 33.7839 40.8521 33.6879 40.8795 33.592C41.0164 33.455 40.8658 33.2221 41.0164 33.0987C41.0027 33.0713 41.0164 33.0302 41.0301 33.0028C41.0301 32.9754 41.0301 32.948 41.0301 32.9206C41.0438 32.9069 41.0712 32.9206 41.0849 32.9069C41.0575 32.7973 41.1122 32.7014 41.1533 32.6191C41.167 32.5232 41.1396 32.441 41.0985 32.3588H41.0849C41.0301 32.4547 41.0027 32.578 40.9206 32.6739C40.8932 32.7288 40.8795 32.7699 40.8384 32.811C40.6741 32.9754 40.5509 33.1535 40.4003 33.3317H40.4414L40.6878 33.2495C40.7289 33.3043 40.7152 33.3865 40.7015 33.455C40.633 33.4961 40.5783 33.5783 40.4961 33.6194C40.414 33.7154 40.2497 33.7839 40.3045 33.9346C40.2908 33.9346 40.236 33.9483 40.2223 33.9209C40.2086 33.9072 40.2223 33.8524 40.1812 33.8798C40.1402 33.8935 40.0854 33.8798 40.058 33.9072C40.0306 33.9072 40.058 33.8524 40.0306 33.8661C39.9485 33.8798 39.8663 33.8387 39.7705 33.8661C39.6747 33.7976 39.5651 33.7839 39.4693 33.7291C39.4556 33.7428 39.4693 33.7565 39.4556 33.7839C39.4419 33.7839 39.4419 33.7565 39.4282 33.7428C39.4282 33.7428 39.4282 33.7291 39.4282 33.7428C39.4145 33.7154 39.3872 33.7154 39.3735 33.7016C39.3598 33.6468 39.3324 33.592 39.2776 33.5509C39.2639 33.4961 39.3461 33.455 39.3735 33.4139C39.4282 33.4687 39.4009 33.5372 39.4145 33.6194C39.4556 33.6194 39.483 33.592 39.5104 33.5783C39.5378 33.5509 39.5925 33.5509 39.6062 33.4961C39.6336 33.5235 39.661 33.5646 39.6884 33.592C39.7157 33.5372 39.7979 33.4961 39.7568 33.4276L39.88 33.2769C39.839 33.2495 39.7568 33.2221 39.7021 33.2495C39.661 33.2495 39.6473 33.3317 39.5925 33.318C39.5788 33.2906 39.6062 33.2495 39.5788 33.2358L39.6062 33.1809C39.5651 33.1261 39.5241 33.0576 39.4556 33.0439C39.4145 33.0713 39.3461 33.1124 39.3598 33.1672C39.3598 33.1672 39.3598 33.1672 39.3461 33.1672C39.3735 33.2084 39.2913 33.2221 39.2776 33.2495C39.2366 33.2221 39.2092 33.1672 39.1818 33.1124C39.0996 33.1398 39.127 33.0302 39.0723 32.9891C39.0586 33.0165 39.0312 33.0576 39.0175 33.0713L38.9627 33.0576C38.9354 33.0987 38.9217 33.1398 38.9217 33.1946C38.9627 33.2221 38.9764 33.2495 38.9764 33.2769C38.949 33.2769 38.9354 33.3043 38.9217 33.318L38.7574 33.3043C38.7163 33.3591 38.7163 33.4276 38.6752 33.4687V33.4961C38.7848 33.4687 38.8943 33.4413 39.0038 33.4276C39.0449 33.455 39.0449 33.5235 39.0723 33.5646L39.0586 33.6742C39.127 33.7291 39.127 33.825 39.0996 33.9072C39.0723 33.9757 39.0038 34.0305 38.9217 34.0442C38.908 34.099 38.9354 34.1538 38.9354 34.2086C38.9217 34.2498 38.9217 34.2909 38.8943 34.3183H38.7574C38.7574 34.2772 38.73 34.3183 38.7026 34.3046L38.6615 34.2772L38.6205 34.332H38.5383L38.4425 34.4005C38.3603 34.3457 38.2645 34.3731 38.1823 34.3457C38.1413 34.3046 38.1002 34.2635 38.0591 34.2224C38.0181 34.2635 38.0044 34.1949 37.977 34.1812C37.977 34.1949 37.9633 34.1949 37.9633 34.1949V34.1264C38.0044 34.1264 38.0044 34.1538 38.0317 34.1675C38.0728 34.1538 38.0317 34.0716 38.1002 34.0716C38.1413 34.0716 38.1687 34.0579 38.2097 34.0442C38.1139 33.9483 37.9496 33.8935 37.9085 33.7428C37.9085 33.7016 37.9222 33.6331 37.9496 33.592C37.977 33.5783 37.9633 33.5235 38.0044 33.5509C38.0317 33.5646 38.0454 33.5783 38.0728 33.592C38.0728 33.5235 38.0317 33.4413 38.0181 33.3728C37.9496 33.3591 37.8538 33.3728 37.7853 33.3591C37.7853 33.3454 37.7716 33.3454 37.7716 33.3454C37.7579 33.3591 37.7305 33.318 37.7168 33.3043C37.6621 33.3043 37.5799 33.3317 37.5389 33.2632H37.4567V33.1535C37.5389 33.0713 37.6484 33.0302 37.7442 32.948C37.7853 32.9617 37.7853 33.0028 37.8127 33.0302C37.8675 33.0302 37.9222 33.0028 37.977 33.0028C37.9633 32.8521 37.799 32.7288 37.8127 32.5643C37.8264 32.5506 37.8264 32.5095 37.8675 32.5095C37.9222 32.4958 37.9222 32.578 37.9633 32.6054L38.0865 32.4684C38.0728 32.441 38.0865 32.4136 38.0728 32.3862C38.0865 32.3862 38.1276 32.3862 38.1139 32.3588C38.2097 32.3862 38.1823 32.4958 38.2371 32.5506H38.3877C38.4014 32.4821 38.3877 32.4136 38.4014 32.3451C38.4151 32.3177 38.4425 32.2903 38.4699 32.2766C38.5246 32.1944 38.6342 32.1669 38.73 32.1258L38.8121 32.0573L38.9217 32.1395L39.0586 32.1532C39.0586 32.1121 39.0312 32.071 39.0312 32.0162C39.0038 31.9614 38.949 31.934 38.8943 31.8929C38.8806 31.8792 38.8806 31.8655 38.8669 31.8381C38.8806 31.8381 38.908 31.8381 38.908 31.8518C38.949 31.8518 39.0038 31.8655 39.0312 31.8381C39.0723 31.8792 39.127 31.9203 39.1544 31.9751C39.1544 32.0025 39.1407 32.0436 39.1681 32.0573C39.1818 32.0436 39.2092 32.0573 39.2229 32.0573C39.2366 32.071 39.2229 32.1121 39.2092 32.1258C39.2229 32.1532 39.1955 32.1944 39.1955 32.2218H39.1818C39.1955 32.2629 39.1544 32.3177 39.1407 32.3725H39.127C39.1407 32.441 39.0723 32.5369 39.1681 32.578C39.1818 32.6054 39.2092 32.6191 39.2366 32.6465C39.2913 32.5506 39.305 32.441 39.3461 32.3314C39.3872 32.2766 39.4693 32.2629 39.4556 32.1944C39.4967 32.1669 39.5378 32.1944 39.5788 32.2081C39.5788 32.1944 39.6062 32.2081 39.6062 32.1944C39.5925 32.1532 39.5925 32.0984 39.5925 32.0573C39.5651 32.0025 39.4967 31.9614 39.483 31.9066C39.4556 31.8929 39.4282 31.8792 39.4145 31.8381C39.305 31.7285 39.2092 31.6051 39.1133 31.4955L39.127 31.29C39.1544 31.2763 39.1955 31.2763 39.2366 31.2626C39.4967 31.1255 39.7568 31.0159 40.0306 30.9063C39.88 30.783 39.7157 30.6597 39.5651 30.5363C39.5925 30.3993 39.7568 30.413 39.8663 30.3719C39.9896 30.3445 40.1128 30.3034 40.236 30.3034C40.414 30.276 40.6057 30.2623 40.7836 30.2212V30.1801C40.7289 30.0293 40.6194 29.8923 40.6467 29.7279H40.8932C40.9069 29.6868 40.9479 29.7142 40.9753 29.6731C41.1533 29.8238 41.345 29.906 41.5093 30.0841C41.564 30.1115 41.6188 30.1527 41.6599 30.2075C41.7557 30.276 41.8242 30.3582 41.8926 30.4267H41.9063C41.7831 30.2075 41.6462 30.0019 41.5093 29.7827L41.4956 29.5771L41.5914 29.5223L41.6051 29.4401C41.6325 29.4401 41.6599 29.4401 41.6873 29.4401C41.7283 29.399 41.7557 29.3305 41.8105 29.3031C41.8516 29.3031 41.9063 29.3168 41.92 29.262C41.9611 29.262 41.9885 29.3579 42.0295 29.2894C41.9748 29.2346 41.8926 29.2072 41.8379 29.1524C41.6873 29.0975 41.5777 28.9742 41.4545 28.8783V28.892L41.5093 28.8783C41.5093 28.8646 41.523 28.8509 41.5367 28.8372C41.564 28.8509 41.5914 28.8783 41.6325 28.892L41.6736 28.8098C41.7146 28.8098 41.7694 28.8783 41.8105 28.8098C41.8516 28.7413 41.9337 28.7961 41.9885 28.7961C41.9885 28.8235 42.0022 28.7961 42.0158 28.7961C42.0569 28.7961 42.1117 28.8235 42.1528 28.8098L41.9885 28.5083C42.098 28.5083 42.2212 28.522 42.3307 28.522C42.1938 28.0973 42.0432 27.6862 41.9063 27.2614H41.9337C42.1117 27.3299 42.3034 27.3984 42.4813 27.4669C42.5635 27.4806 42.6456 27.5217 42.7278 27.5491C42.7278 27.6588 42.7141 27.7821 42.7278 27.9054L42.7825 27.9602C42.7689 28.2069 42.7689 28.4261 42.7552 28.6728H42.7689C42.8236 28.618 42.8921 28.5768 42.9331 28.522C42.9331 28.4672 42.9195 28.385 42.9468 28.3302L43.0564 28.2891V28.2206C43.0837 28.1658 43.1248 28.1247 43.1522 28.0698C43.1933 28.0561 43.2207 28.0013 43.248 28.0424C43.2754 28.1247 43.3576 28.1658 43.385 28.2617C43.426 28.2754 43.4534 28.3302 43.4534 28.3576C43.5766 28.5083 43.6862 28.6728 43.8231 28.8235C43.9737 29.0427 44.179 29.262 44.3433 29.4538C44.3023 29.632 44.3296 29.8512 44.4392 30.0019V30.0293H44.4529C44.5213 30.1664 44.6582 30.2623 44.7951 30.3034C44.9184 30.3034 45.0142 30.2349 45.11 30.1664L45.4934 30.413C45.5892 30.3993 45.644 30.4678 45.7124 30.4952C45.6714 30.4404 45.6029 30.3856 45.5618 30.3445H45.5208C45.0963 30.0156 44.7267 29.6182 44.3433 29.2483C44.0695 28.9468 43.8368 28.5768 43.6725 28.2206C43.604 28.0835 43.5766 27.9328 43.5082 27.7958H43.5356C43.8368 27.9465 44.1243 28.1247 44.3981 28.3302C44.3981 28.3439 44.4118 28.3439 44.4118 28.3576C44.4665 28.2891 44.4665 28.1795 44.5213 28.0973V28.0835H44.5487C44.6856 28.1384 44.8088 28.2343 44.9594 28.2754C45.0005 28.2891 45.0553 28.3028 45.11 28.3165C45.0826 28.2754 45.0142 28.2617 44.9594 28.2617C44.9184 28.2069 44.8773 28.1658 44.8225 28.111L44.5624 27.9465C44.5487 27.9328 44.5761 27.8917 44.5487 27.878C44.4802 27.9602 44.4255 28.0698 44.357 28.1521H44.3433C44.3433 28.1658 44.3433 28.1795 44.3296 28.1932C44.2612 28.1658 44.2064 28.0973 44.138 28.0561C43.9326 27.8917 43.7683 27.6862 43.6451 27.4806L43.6314 27.4258C43.6725 27.4121 43.7272 27.3847 43.7546 27.4121C43.7546 27.4258 43.7683 27.4258 43.7683 27.4258C43.7683 27.3984 43.7957 27.371 43.8094 27.3573C43.8231 27.2751 43.8778 27.2066 43.9052 27.1244C43.9326 27.1244 43.9189 27.0558 43.96 27.0695L44.4392 27.3847V27.3984C44.4665 27.3847 44.4802 27.4258 44.5076 27.4258C44.6172 27.3299 44.6856 27.2203 44.7951 27.1244H44.8225C44.9731 27.234 45.1374 27.3573 45.288 27.4532L45.3154 27.4258C45.4249 27.1792 45.5481 26.9188 45.6577 26.6585C45.6851 26.6859 45.6714 26.727 45.6987 26.7544C45.7946 27.0421 45.9315 27.3299 46.0273 27.6177C46.0273 27.6451 46.041 27.6725 46.0547 27.6862C46.2053 27.604 46.3285 27.4943 46.4791 27.3984C46.5065 27.4121 46.5339 27.4532 46.5476 27.4806C46.575 27.4806 46.575 27.508 46.5887 27.508L46.575 27.5903C46.616 27.604 46.6571 27.6314 46.6845 27.6451V27.6588H46.616C46.6024 27.7821 46.6297 27.9191 46.6297 28.0424C46.616 28.0561 46.6434 28.0698 46.6297 28.0973C46.6297 28.1384 46.6434 28.1932 46.5887 28.1932C46.575 28.2069 46.575 28.2206 46.5887 28.248C46.6982 28.1247 46.753 27.9739 46.8077 27.8232C46.9309 27.8369 47.0542 27.8643 47.1774 27.878C47.2048 27.8369 47.2048 27.7821 47.2321 27.741C47.2458 27.7273 47.2458 27.6862 47.2732 27.6588C47.2732 27.6314 47.2869 27.604 47.3006 27.5765C47.3006 27.5903 47.328 27.6314 47.3143 27.6451H47.328C47.4101 28.0013 47.4649 28.3987 47.4375 28.7824C47.4923 28.7961 47.5607 28.7824 47.6155 28.7961L47.7661 28.9194C47.725 29.1524 47.6566 29.3716 47.6292 29.5908C47.6292 29.6182 47.6292 29.6457 47.6429 29.6594C47.6566 29.632 47.6566 29.5908 47.6703 29.5497L47.7387 29.3853C47.8482 29.2894 47.903 29.1387 47.9715 29.0016L47.9578 28.9057C48.0125 28.9194 48.081 28.9742 48.1358 29.0153V29.0564L47.9578 29.5497V29.8649C47.9852 29.8786 48.0125 29.8512 48.0262 29.8375C48.0262 29.8238 48.0399 29.8101 48.0673 29.8101C48.081 29.8101 48.0673 29.8375 48.0536 29.8375C48.0262 29.9745 47.9988 30.1115 47.9441 30.2212C47.8756 30.2623 47.8346 30.3171 47.8209 30.3856C47.8072 30.3856 47.7935 30.3856 47.7798 30.3993C47.4649 30.3993 47.1911 30.5089 46.9583 30.6734C46.4928 30.646 46.0273 30.7419 45.6029 30.8789C45.5071 30.9063 45.4386 30.9474 45.3565 30.9748L45.3428 30.9611C45.288 31.0159 45.1922 31.0296 45.1374 31.0707C45.0279 31.057 44.9868 31.1667 44.9047 31.2215C44.7404 31.3722 44.5213 31.4407 44.3296 31.5366C44.3023 31.5229 44.3159 31.564 44.2886 31.5503C44.2338 31.5777 44.179 31.5777 44.1243 31.6051C43.8915 31.6462 43.6451 31.6325 43.4534 31.5366L43.2891 31.3448C43.2617 31.3448 43.2207 31.3722 43.207 31.3448V31.3311C43.1796 31.3448 43.1659 31.29 43.1385 31.2763L42.9605 31.2489L42.8236 31.3722C42.8099 31.3448 42.8099 31.3037 42.7962 31.2626C42.7689 31.1529 42.7415 31.0433 42.7415 30.9337L42.6593 30.9063C42.5361 30.9611 42.3992 31.0159 42.2623 31.0707C42.2349 31.0159 42.2075 30.9474 42.2075 30.8652L42.1254 30.7967C42.098 30.8104 42.0843 30.7693 42.0569 30.783C41.9611 31.0433 41.7968 31.3037 41.6051 31.5092V31.6599H41.6188C41.7694 31.5914 41.8652 31.4955 41.9474 31.3585L42.0158 31.3722C42.0569 31.3174 42.1254 31.2763 42.1938 31.2763C42.2486 31.2763 42.3034 31.2763 42.3444 31.3037L42.5224 31.2489C42.5224 31.3585 42.4813 31.4544 42.4677 31.5503C42.4677 31.7148 42.454 31.8792 42.4677 32.0573V32.071C42.5635 31.9614 42.6593 31.8107 42.7825 31.7285L42.9195 31.6462C42.9331 31.6188 42.9195 31.5503 42.9742 31.564C43.0153 31.5229 43.029 31.4681 43.0701 31.427C43.0974 31.5092 43.0564 31.6325 43.1659 31.6599C43.2207 31.6874 43.2891 31.7148 43.3576 31.7148C43.3986 31.7285 43.3576 31.7833 43.4123 31.797C43.4945 31.7696 43.5766 31.797 43.6451 31.8244C43.7683 31.8518 43.8778 31.8792 44.0011 31.8792C44.0421 31.8792 44.0284 31.8107 44.0695 31.797L44.2201 31.934C44.2612 31.9203 44.2749 31.8792 44.3159 31.8518C44.5213 31.6737 44.7814 31.564 45.069 31.5503C45.3428 31.5229 45.5892 31.4544 45.863 31.4544L45.8767 31.4407C46.3422 31.427 46.8077 31.4681 47.2595 31.5366C47.2732 31.5366 47.3006 31.5503 47.3143 31.5777C47.3827 31.4955 47.4238 31.427 47.506 31.3722C47.547 31.3311 47.5744 31.2763 47.6292 31.2489C47.725 31.1392 47.7935 31.0022 47.8346 30.8652C47.8619 30.8652 47.8756 30.9063 47.8893 30.9337C47.8619 31.0022 47.8893 31.0707 47.903 31.1255C47.8346 31.2489 47.7524 31.3448 47.684 31.4544C47.6429 31.6462 47.4786 31.7833 47.3691 31.934L47.3006 32.0162C46.9583 31.9614 46.5476 31.9614 46.1916 32.0299C46.1779 32.0162 46.1779 32.0436 46.1506 32.0436C45.9999 32.0436 45.8767 32.1258 45.7261 32.1532C45.6166 32.1807 45.5071 32.2355 45.4112 32.2492L45.3839 32.2629C45.2469 32.2903 45.11 32.3177 44.9731 32.3451L44.9594 32.3314C44.9184 32.3588 44.891 32.3588 44.8362 32.3588C44.4802 32.4136 44.0969 32.3725 43.7683 32.2492C43.5629 32.1807 43.3713 32.1258 43.1796 32.0162L43.0564 31.9477C43.0153 31.9751 43.0427 32.0299 43.0016 32.071V32.1258C42.9605 32.3314 42.8921 32.5369 42.851 32.7425C42.9605 32.6876 43.0564 32.6191 43.1659 32.5643C43.1796 32.578 43.1796 32.6054 43.1796 32.6328C43.2207 32.7014 43.1933 32.7973 43.2344 32.8658C43.3439 32.8521 43.4534 32.7973 43.5629 32.7699L43.6998 32.7288L43.7135 32.7425C43.7272 32.9206 43.7409 33.0713 43.7546 33.2495C43.782 33.2495 43.8231 33.2221 43.8368 33.1946C43.9189 33.1261 43.9874 33.0713 44.0695 33.0165C44.1927 33.0165 44.2886 32.9343 44.3981 32.9069C44.3981 32.9069 44.4118 32.9206 44.4255 32.9069L44.4392 32.8932C44.5898 32.8384 44.7678 32.811 44.9047 32.7151C45.1648 32.6328 45.4249 32.5506 45.6987 32.5095L45.7124 32.5232V32.5095C45.9452 32.4821 46.1642 32.441 46.4107 32.441C46.4244 32.4273 46.4654 32.4136 46.4928 32.441C46.5065 32.4684 46.5065 32.5232 46.4928 32.5643C46.4791 32.6602 46.4791 32.7699 46.4107 32.8384C46.3285 32.9754 46.2601 33.1124 46.1779 33.2495C46.4518 33.1124 46.6982 32.9343 46.9446 32.7288C47.1089 32.5643 47.2458 32.3862 47.4238 32.2355L47.4375 32.2081L47.7798 31.8518L47.7935 31.8381L47.903 31.7011H47.9304L48.0262 31.797C48.081 31.8244 48.1905 31.7833 48.2042 31.8655C48.2453 31.9066 48.2727 31.9888 48.3548 31.9614C48.3822 31.9888 48.4233 32.0162 48.4643 32.0299V32.1944C48.3959 32.2492 48.3685 32.3451 48.3959 32.4273C48.3685 32.4958 48.3959 32.6054 48.3959 32.6877C48.4507 32.7014 48.5191 32.7014 48.5876 32.6877C48.6149 32.6602 48.5876 32.6191 48.6013 32.5917C48.656 32.5369 48.7245 32.5232 48.7792 32.4958C48.8066 32.5095 48.7929 32.5506 48.7929 32.5643L48.7655 32.6054L48.7792 32.7699C48.8066 32.7836 48.8477 32.7425 48.8751 32.7562C48.7929 32.9617 48.6423 33.1672 48.4917 33.3591ZM44.5624 29.7279C44.6171 29.7827 44.6582 29.8238 44.6856 29.8786C44.6582 29.9334 44.6445 30.0019 44.6172 30.0567C44.5487 29.9745 44.5076 29.8375 44.5624 29.7279ZM47.3691 30.9611C47.3417 30.9748 47.3143 31.0433 47.2732 31.0022L47.1774 30.8515H47.15C47.0542 30.9063 47.0405 31.0022 46.972 31.0844C46.9173 31.057 46.8762 31.0022 46.8214 30.9611L46.6982 31.0844C46.6024 31.0707 46.5065 31.0296 46.4107 31.0022L46.2464 31.1255L45.9726 31.0433C45.9041 31.0981 45.8493 31.1667 45.7809 31.2215L45.6166 31.1392C45.5071 31.1667 45.4249 31.2489 45.3291 31.3037C45.3154 31.3037 45.288 31.3037 45.2743 31.3037L45.5618 31.0433H45.6303L45.7124 30.9611C45.8767 30.92 46.0684 30.8926 46.2327 30.8378C46.4107 30.8241 46.575 30.8241 46.753 30.8104C46.7803 30.8652 46.8351 30.8241 46.8762 30.8378C46.972 30.9337 47.0268 30.783 47.1089 30.7556C47.1774 30.7693 47.2185 30.7145 47.2595 30.6734C47.328 30.646 47.4101 30.6185 47.4923 30.6322C47.5197 30.7693 47.3964 30.8515 47.3691 30.9611Z" fill="#D9232E"/>
<g clip-path="url(#clip1_2158_50224)">
<path d="M70.9706 43.1647V43.2497L70.9769 43.0672V31.2099L73.83 31.4292L78.6988 15.191L71.4313 16.5719L71.1018 16.2403C69.5344 14.6342 67.6618 13.3577 65.594 12.4857C63.5262 11.6137 61.305 11.1639 59.0609 11.1626C58.511 11.1626 57.9549 11.1899 57.4071 11.2445L57.0189 11.2833L56.9423 10.9003C56.81 10.2374 56.6273 9.58567 56.3956 8.95068C55.574 6.6957 53.8699 4.07765 51.5498 3.48793L51.3505 3.43757L51.2644 3.25289C50.8993 2.4575 50.2581 1.75866 49.4103 1.23085C48.1354 0.436516 46.3484 0 44.3778 0C43.1586 0.00345606 41.9445 0.157115 40.7629 0.457503C38.3494 1.06401 34.9738 2.89192 32.1689 5.10598L31.6317 5.56139L31.3505 5.80693C29.7251 7.22665 25.4071 11 20.0588 11.001C18.6409 10.9982 17.2357 10.7335 15.914 10.2204L15.6097 10.1039L15.7041 10.4187C16.8227 14.1007 18.5918 15.3767 20.0063 16.0777L20.9203 16.5299L19.9591 16.8699C19.1434 17.1503 18.2854 17.2877 17.4229 17.276C16.4216 17.2592 15.4252 17.1311 14.4523 16.894L14.192 16.8342L14.2634 17.0913C14.8195 19.1102 15.9685 20.2623 16.8353 20.8741L17.3137 21.2172L16.8447 21.574C15.4533 22.6233 13.5918 24.446 12.6086 27.1354L12.4648 27.5551L7.99685 28.3945V53.7912C7.99685 55.5194 6.27177 57.659 5.66632 58.2728L0 64.0241L7.94124 62.5939C7.94124 62.5939 22.936 59.8111 29.3001 58.6642C28.4121 60.1486 27.3968 61.553 26.2655 62.8615L21.6097 67.9958L28.8499 67.1186C40.787 65.5939 44.8846 58.8667 46.1857 55.6233L77.9507 49.7471L73.0451 46.2455C70.9979 44.7828 70.9706 43.2319 70.9706 43.1647Z" fill="white"/>
<path d="M69.0147 43.1858C69.0147 43.1322 69.0147 43.0987 69.0147 43.0892V28.7944C69.5772 28.8374 72.1973 29.3453 72.1973 29.3453L75.4985 18.0661L70.8815 18.9276C68.8773 16.4345 66.1784 14.5793 62.9476 13.7346C60.432 13.0726 57.7868 13.082 55.276 13.7618C55.4428 9.83109 53.105 5.96645 51.1165 5.47223C50.6357 5.35336 50.1339 5.34797 49.6506 5.45649C49.7229 5.16059 49.7282 4.85231 49.6664 4.55407C49.2204 2.47537 45.4166 1.37779 41.2466 2.4271C39.2812 2.92028 36.1816 4.49846 33.3558 6.72931C32.2067 7.63697 25.4355 14.2267 18.7251 12.7755C19.2193 13.5404 21.7902 15.744 25.6506 15.2708C25.4607 15.4701 25.2697 15.6674 25.0777 15.8594C23.9297 17.0137 20.4219 19.9108 17.3998 19.1239C17.9192 19.5698 20.128 20.8353 23.1805 20.4303C22.4049 20.8955 21.5986 21.3074 20.7671 21.6632C17.7335 22.9801 14.8342 25.6894 14.3914 29.4659L10.2393 30.2403V53.7912C10.2393 56.8342 7.28859 59.8195 7.25921 59.85L6.53833 60.5719C6.53833 60.5719 31.8594 55.8899 32.8762 55.7052C31.532 60.1123 27.7566 64.3243 27.7167 64.3683L27.1312 65.0116L27.9937 64.9003C40.8185 63.2603 44.0263 55.0441 44.3988 53.658C44.7944 53.5855 73.0179 48.5037 73.0179 48.5037L72.403 48.0661C69.5551 46.0315 69.0147 43.6915 69.0147 43.1858ZM20.6548 26.1448C21.5667 26.2172 21.383 27.0546 20.596 28.3274L18.468 28.7241L18.447 28.7083L16.0682 29.1522C17.1312 27.8269 18.6779 26.4428 20.6548 26.1448Z" fill="#021D49"/>
<path d="M63.2601 16.4123C65.1398 16.9441 66.8662 17.9152 68.2968 19.2455L68.3535 19.235C66.7722 17.4763 64.7858 16.172 62.4868 15.5204C57.2129 14.0282 51.6714 16.3598 47.9527 21.0261L48.4637 21.6778L47.4668 21.6641C47.1114 22.1538 46.7757 22.6645 46.4595 23.1961L47.8519 22.9443C51.5623 17.6085 57.5665 14.8215 63.2601 16.4123Z" fill="white"/>
<path d="M36.7597 23.341C36.9885 23.1931 37.2246 23.0441 37.4743 22.893C36.1648 22.0231 35.2193 21.086 34.6485 20.0839C34.4208 20.2078 34.2005 20.3316 33.9854 20.4565C34.5562 21.447 35.467 22.405 36.7597 23.341Z" fill="#D7282F"/>
<path d="M34.872 19.3756C35.2071 19.2014 35.5548 19.0286 35.9151 18.8572C35.2855 17.4113 36.0273 16.3756 36.5247 15.8982C35.872 16.1909 35.2655 16.4847 34.6905 16.7785C34.4339 17.6254 34.4932 18.5366 34.8574 19.3431C34.8616 19.3536 34.8668 19.3651 34.872 19.3756Z" fill="#D7282F"/>
<path d="M34.4175 19.6222C34.407 19.5991 34.3955 19.576 34.385 19.5519C34.0443 18.7822 33.942 17.9281 34.0912 17.0996C33.7939 17.2598 33.5071 17.4193 33.2308 17.5781C33.2145 18.4116 33.3912 19.2376 33.747 19.9916C33.9611 19.8667 34.1825 19.7429 34.4175 19.6222Z" fill="#D7282F"/>
<path d="M37.9852 22.5908C38.3293 22.3915 38.6935 22.1889 39.0733 21.9875C37.5382 21.0053 36.6431 20.1081 36.1604 19.317C35.7984 19.4901 35.4479 19.6632 35.1111 19.8416C35.5885 20.6716 36.4563 21.616 37.9852 22.5908Z" fill="#D7282F"/>
<path d="M30.6401 22.0504C31.2225 21.6033 31.8888 21.1332 32.6401 20.659C32.2099 19.8426 32.0105 19.043 32.0556 18.2896C31.3116 18.767 30.6632 19.234 30.1049 19.6663C30.0212 20.0567 30.0266 20.4609 30.1207 20.8489C30.2259 21.2754 30.4015 21.6815 30.6401 22.0504Z" fill="#D7282F"/>
<path d="M42.6654 23.8867C41.5497 23.3951 40.4657 22.8344 39.4199 22.2078L38.4136 22.8594C39.2657 23.3585 40.1506 23.7995 41.0621 24.1795L42.6654 23.8867Z" fill="#D7282F"/>
<path d="M40.1343 24.3442C39.3717 24.0012 38.6312 23.6112 37.9171 23.1764L37.1941 23.6443C37.6677 23.9633 38.1878 24.2781 38.7544 24.5887L40.1343 24.3442Z" fill="#D7282F"/>
<path d="M36.1238 24.3368L34.5498 25.3546L36.98 24.915C36.6827 24.724 36.3973 24.5313 36.1238 24.3368Z" fill="#D7282F"/>
<path d="M32.7482 25.681L33.7314 25.5026C32.191 24.5372 31.1805 23.6264 30.5404 22.8017C30.3305 22.9675 30.1438 23.1291 29.9612 23.2875C30.5939 24.0451 31.5131 24.8625 32.7482 25.681Z" fill="#D7282F"/>
<path d="M34.2078 25.2057C34.6149 24.8657 35.1207 24.4711 35.723 24.042C34.4638 23.0892 33.5194 22.0955 32.8982 21.1154C32.1637 21.5834 31.51 22.0462 30.9402 22.4869C31.5666 23.3064 32.5918 24.2235 34.2078 25.2057Z" fill="#D7282F"/>
<path d="M28.658 23.7671C28.0872 23.0609 27.7535 22.3778 27.7861 21.808C27.5332 22.0899 27.2984 22.3874 27.083 22.6989C27.083 22.6989 26.721 23.5929 27.6874 24.8101C27.9246 24.5279 28.2446 24.1742 28.658 23.7671Z" fill="#D7282F"/>
<path d="M31.1237 25.9738C30.3558 25.4486 29.646 24.8433 29.0062 24.1679C28.5865 24.5803 28.2717 24.9339 28.0398 25.2046C28.4573 25.616 28.921 25.9776 29.4217 26.2823L31.1237 25.9738Z" fill="#D7282F"/>
<path d="M30.2318 22.3682C29.9449 21.9402 29.7347 21.4655 29.6106 20.9653C29.5458 20.6904 29.5173 20.4082 29.5256 20.1259C29.2916 20.3231 29.0776 20.512 28.8803 20.6935C28.7869 21.2507 29.023 22.0062 29.6369 22.8604C29.8247 22.704 30.0209 22.5382 30.2318 22.3682Z" fill="#D7282F"/>
<path d="M62.4553 18.9255C61.9659 18.7764 61.4635 18.6739 60.9548 18.6191L59.9275 19.9024L59.9097 18.5729C57.3441 18.6285 54.8404 19.9014 52.8394 22.0451L64.5791 19.9203C63.9207 19.4918 63.206 19.157 62.4553 18.9255Z" fill="#D7282F"/>
<path d="M23.678 18.6937C23.678 18.6937 27.5605 17.7944 32.0306 13.8668C34.7714 11.4597 40.3737 3.20575 46.7325 4.509C43.8816 2.5006 37.4324 4.98644 32.5856 9.76818C30.8217 11.509 28.2331 12.4964 27.1449 12.8605C27.1449 12.8605 29.9508 12.8248 32.5489 11.3243C30.3191 13.7598 26.4429 17.6507 23.678 18.6937Z" fill="#D7282F"/>
<path d="M37.8499 9.45644C41.6389 9.61804 45.6295 7.35781 46.5592 6.39243C44.462 7.29974 41.5588 8.32108 37.8499 9.45644Z" fill="#D7282F"/>
<path d="M52.064 15.0535C52.5477 14.6505 53.5152 14.1658 53.5152 14.1658C54.1595 10.6191 51.7408 7.47531 50.6128 6.91077C53.7555 10.8604 52.064 15.0535 52.064 15.0535Z" fill="#D7282F"/>
<path d="M26.1404 21.2131C23.1866 21.87 18.5507 24.6423 17.3262 26.721C19.3335 24.7094 23.5046 23.9161 23.5046 23.9161C24.1595 22.8213 25.0624 21.8954 26.1404 21.2131Z" fill="#D7282F"/>
<path d="M62.5519 17.6526C63.9258 18.0435 65.2064 18.7081 66.3169 19.6065L68.3001 19.2487C66.8696 17.9183 65.1432 16.9472 63.2634 16.4155C57.5698 14.8247 51.5656 17.6117 47.8594 22.9506L49.7597 22.6065C52.9905 18.4386 57.893 16.3389 62.5519 17.6526Z" fill="white"/>
<path d="M38.7544 24.5939C38.1871 24.2798 37.667 23.965 37.1941 23.6495L36.1238 24.3421C36.3966 24.5373 36.6827 24.73 36.9821 24.9203L38.7544 24.5939Z" fill="white"/>
<path d="M35.722 24.042C36.0396 23.8161 36.3855 23.5824 36.7598 23.3411C35.4638 22.4051 34.5562 21.4471 33.9854 20.4565C33.6034 20.6755 33.2407 20.8951 32.8972 21.1155C33.5153 22.0955 34.4628 23.0851 35.722 24.042Z" fill="white"/>
<path d="M33.743 19.9917C33.3872 19.2377 33.2105 18.4117 33.2267 17.5782L33.1973 17.5961C33.0179 17.701 32.8447 17.8059 32.6727 17.9046L32.5467 17.9812C32.3904 18.0777 32.2319 18.1742 32.0861 18.2697L32.0473 18.2939C32.0011 19.0473 32.2015 19.8469 32.6317 20.6632C32.9854 20.4366 33.3537 20.2141 33.743 19.9917Z" fill="white"/>
<path d="M29.6369 22.8658C29.023 22.0116 28.7869 21.2561 28.8803 20.6989L28.873 20.7063C28.426 21.1186 28.0702 21.488 27.7943 21.7986L27.7859 21.808C27.7533 22.3778 28.087 23.0609 28.6579 23.7671C28.9401 23.489 29.2665 23.19 29.6369 22.8658Z" fill="white"/>
<path d="M31.1239 25.9737L32.7482 25.681C31.5132 24.8625 30.594 24.0451 29.9612 23.2875C29.5992 23.6023 29.2813 23.8971 29.0063 24.1678C29.6461 24.8432 30.3559 25.4486 31.1239 25.9737Z" fill="white"/>
<path d="M46.0074 10.6296V13.746L46.7839 13.8415L47.2036 13.2056L47.744 14.5855H45.6003V15.5036H47.4764L48.0483 16.9727H47.744L46.9864 16.5236H45.1081V17.6285H46.8133L46.1197 18.7586L44.8385 18.7051L44.1763 19.7828L45.6087 20.6222C46.0385 19.9936 46.5522 19.4267 47.1354 18.937C48.1029 18.1238 48.466 17.894 48.466 17.894L49.4229 15.0997H48.7346L49.9109 13.4543L50.1123 11.9643L49.5037 11.4669L48.6643 11.9108L47.4471 11.7523L47.0001 10.703L49.7209 9.67154C49.3316 8.22768 48.2257 7.97479 48.2257 7.97479C48.0588 8.14163 43.7766 9.33891 42.6716 9.61383L45.1984 10.3882L46.0074 10.6296Z" fill="white"/>
<path d="M41.9991 18.7166L41.7211 18.1594L41.1786 17.3976L40.2688 15.1405C40.2688 15.1405 40.4157 17.1185 40.657 17.5718C40.8848 17.9999 41.2111 18.2517 41.9991 18.7166Z" fill="white"/>
<path d="M42.0441 15.0231L43.4606 14.403L44.8394 11.51L42.9989 11.7923L41.511 11.4429L40.3379 12.6989L42.3568 13.8427L42.0441 15.0231Z" fill="white"/>
<path d="M56.9685 24.0839C56.8636 24.3987 56.1291 26.8898 55.7607 27.9265C56.8688 27.5121 60.5687 25.9328 60.5687 25.9328C60.5687 25.9328 60.5687 45.2539 60.5687 45.3945C60.5687 45.9139 60.1049 46.9947 59.5026 48.3001C60.7198 48.0808 66.2497 47.1123 67.1784 46.9465C66.1836 45.4071 66.0241 43.9433 66.0241 43.3599C66.0241 43.2235 66.0241 25.1112 66.0241 25.1112C66.0241 25.1112 70.2015 25.3715 70.7461 25.4019C70.8867 24.9517 71.7051 22.32 71.9811 21.4344C70.8122 21.6642 57.3851 24.0021 56.9685 24.0839Z" fill="white"/>
<path d="M44.0609 26.4974C42.765 26.7566 36.1491 27.8678 35.1553 28.0714C37.1491 29.5981 37.2393 31.1584 37.2424 31.8562C37.2424 31.8856 37.3033 47.7702 37.2424 48.8101C37.084 51.5383 37.6821 54.1847 32.9958 61.5446C39.4061 58.1731 43.042 54.8237 42.7703 45.0084V29.7681C42.7692 29.7261 43.0221 27.7807 44.0609 26.4974Z" fill="white"/>
<path d="M46.2634 26.0913C48.1375 27.3631 48.2571 28.9077 48.2571 29.49C48.2571 29.595 48.2571 47.5079 48.2571 47.6432C48.2571 48.1679 47.9098 49.2592 47.3211 50.5635C48.5111 50.3463 53.8458 49.4176 54.7545 49.2529C54.0682 48.1471 53.7004 46.8733 53.6915 45.5719V27.7093C53.6915 27.6758 53.8552 25.6485 54.828 24.5792C53.6202 24.7964 47.1952 25.9234 46.2634 26.0913Z" fill="white"/>
<path d="M32.0366 31.6946C32.0366 31.661 32.2822 29.5561 33.257 28.4879C32.0408 28.7051 25.7701 29.8047 24.8394 29.9716C26.7135 31.2444 26.6138 32.9097 26.6169 33.49V45.3703C26.6169 45.3703 19.3441 31.4648 19.0912 30.9852C18.597 31.0765 13.555 31.9559 13.0052 32.0576C13.0052 32.6495 13.0052 53.916 13.0052 54.0555C13.0052 54.5802 12.8195 55.554 12.2297 56.8593C13.4186 56.6411 18.639 55.7323 19.5466 55.5687C18.5718 54.0199 18.4186 52.5781 18.4186 52.001V40.1888C18.4186 40.1888 25.6977 53.9611 25.9496 54.4406C26.4459 54.3483 31.491 53.4679 32.0356 53.3672L32.0366 31.6946Z" fill="white"/>
</g>
</g>
<defs>
<clipPath id="clip0_2158_50224">
<rect width="78.88" height="68" fill="white"/>
</clipPath>
<clipPath id="clip1_2158_50224">
<rect width="78.6988" height="68" fill="white"/>
</clipPath>
</defs>
</svg>
